<?xml version="1.0" standalone="no"?>
<!DOCTYPE svg PUBLIC "-//W3C//DTD SVG 20010904//EN"
 "http://www.w3.org/TR/2001/REC-SVG-20010904/DTD/svg10.dtd">
<svg version="1.0" xmlns="http://www.w3.org/2000/svg"
 width="360.000000pt" height="360.000000pt" viewBox="0 0 360.000000 360.000000"
 preserveAspectRatio="xMidYMid meet">
<metadata>
Created by potrace 1.14, written by Peter Selinger 2001-2017
</metadata>
<g transform="translate(0.000000,360.000000) scale(0.100000,-0.100000)"
fill="#000000" stroke="none">
<path d="M2678 2874 l-3 -246 -130 -42 c-384 -124 -692 -340 -1051 -737 -288
-320 -562 -514 -854 -607 -134 -42 -226 -56 -372 -57 l-128 0 0 -147 0 -148
123 0 c436 0 834 147 1217 449 94 75 249 226 445 435 156 167 273 269 417 363
96 63 257 145 310 158 l28 7 2 -216 3 -217 383 310 c211 170 383 312 383 316
0 5 -734 603 -761 620 -6 4 -11 -82 -12 -241z"/>
<path d="M140 2564 l0 -149 128 -1 c147 0 240 -14 372 -56 193 -61 392 -176
585 -340 l100 -85 118 128 c64 71 117 130 117 132 0 2 -37 33 -82 69 -293 231
-572 361 -910 424 -46 9 -161 18 -255 21 l-173 6 0 -149z"/>
<path d="M2680 1516 c0 -199 -1 -216 -17 -216 -29 0 -217 95 -310 155 -74 49
-118 82 -253 192 l-27 22 -119 -126 -118 -126 44 -39 c71 -62 265 -189 376
-246 109 -56 224 -101 344 -135 l75 -22 0 -248 c0 -136 2 -247 5 -247 6 0 764
612 771 622 3 5 -723 600 -762 624 -5 3 -9 -90 -9 -210z"/>
</g>
</svg>
